<?xml version="1.0" encoding="UTF-8" standalone="no"?>
<svg
   height="24"
   viewBox="0 0 24 24"
   width="24"
   version="1.1"
   id="svg20"
   sodipodi:docname="mActionCapturePoint.svg"
   inkscape:version="1.2.1 (9c6d41e410, 2022-07-14)"
   xmlns:inkscape="http://www.inkscape.org/namespaces/inkscape"
   xmlns:sodipodi="http://sodipodi.sourceforge.net/DTD/sodipodi-0.dtd"
   xmlns="http://www.w3.org/2000/svg"
   xmlns:svg="http://www.w3.org/2000/svg">
  <defs
     id="defs24" />
  <sodipodi:namedview
     id="namedview22"
     pagecolor="#ffffff"
     bordercolor="#000000"
     borderopacity="0.25"
     inkscape:showpageshadow="2"
     inkscape:pageopacity="0.0"
     inkscape:pagecheckerboard="0"
     inkscape:deskcolor="#d1d1d1"
     showgrid="false"
     inkscape:zoom="12.330175"
     inkscape:cx="0.85156946"
     inkscape:cy="21.329787"
     inkscape:window-width="1920"
     inkscape:window-height="1017"
     inkscape:window-x="1912"
     inkscape:window-y="-8"
     inkscape:window-maximized="1"
     inkscape:current-layer="g18" />
  <g
     fill="#8cbe8c"
     stroke-linecap="round"
     id="g18">
    <g
       id="g959">
      <rect
         fill="#c4a000"
         height="11"
         rx="2.0114901"
         width="11"
         x="13"
         y="13"
         id="rect2" />
      <g
         fill="#fcffff"
         id="g8"
         transform="translate(33)">
        <path
           d="m -15,14 v 2.0625 c -0.537663,0.111041 -1.024662,0.383291 -1.375,0.78125 l -1.78125,-1.03125 -0.5,0.875 1.78125,1.03125 C -16.957063,17.966182 -17,18.225145 -17,18.5 c 0,0.274855 0.04294,0.533818 0.125,0.78125 l -1.78125,1.03125 0.5,0.875 1.78125,-1.03125 c 0.352503,0.40042 0.832682,0.670182 1.375,0.78125 V 23 h 1 v -2.0625 c 0.537663,-0.111041 1.024662,-0.383291 1.375,-0.78125 l 1.78125,1.03125 0.5,-0.875 -1.78125,-1.03125 C -12.042937,19.033818 -12,18.774855 -12,18.5 c 0,-0.274855 -0.04294,-0.533818 -0.125,-0.78125 l 1.78125,-1.03125 -0.5,-0.875 -1.78125,1.03125 C -12.977503,16.44333 -13.457682,16.173568 -14,16.0625 V 14 Z m 0.5,3.5 c 0.552,0 1,0.448 1,1 0,0.552 -0.448,1 -1,1 -0.552,0 -1,-0.448 -1,-1 0,-0.552 0.448,-1 1,-1 z"
           id="path4" />
        <path
           d="m -19,19 9,-0.0096 c 0,0 0,0 0,-2 C -10,14 -11,14 -14.5,14 -18,14 -19,14 -19,17 Z"
           fill-rule="evenodd"
           opacity="0.3"
           id="path6" />
      </g>
      <rect
         height="5"
         rx="3.125"
         stroke="#4c4d4c"
         stroke-opacity=".933333"
         width="5"
         x="1.5"
         y="9.5"
         id="rect12"
         style="fill-opacity:1;fill:#f55b00" />
      <rect
         height="5"
         rx="3.125"
         stroke="#4b4c4b"
         stroke-opacity=".956863"
         width="5"
         x="8.5"
         y="1.5"
         id="rect14"
         style="fill:#f55b00;fill-opacity:1" />
      <rect
         height="5"
         rx="3.125"
         stroke="#4c4d4c"
         stroke-opacity=".933333"
         width="5"
         x="17.5"
         y="3.5"
         id="rect16"
         style="fill:#f55b00;fill-opacity:1" />
    </g>
  </g>
</svg>
